<svg width="51" height="50" viewBox="0 0 51 50" fill="none" xmlns="http://www.w3.org/2000/svg">
<path d="M50.2129 5.94341V43.7004C50.2129 44.2381 50.1396 44.7554 50.0043 45.2455C49.4613 47.2389 47.8798 48.8105 45.8808 49.3369C45.4009 49.4672 44.8998 49.5353 44.378 49.5353H6.62102C3.40108 49.5353 0.786133 46.9207 0.786133 43.7004V5.94341C0.786133 2.72346 3.4007 0.108887 6.62102 0.108887H44.378C47.5979 0.108887 50.2129 2.72346 50.2129 5.94341Z" fill="#FCC020"/>
<path d="M40.2249 24.5879V24.6597C40.2174 25.2835 40.1149 25.8847 39.9313 26.4497C39.8655 26.6515 39.7892 26.8502 39.7027 27.0422V27.0433C38.7625 29.141 36.6577 30.6015 34.2116 30.6015C33.912 30.6015 33.6191 30.58 33.3312 30.5373C30.4506 30.1144 28.2332 27.6491 28.1973 24.6597V24.5879C28.1973 21.5667 30.4268 19.0643 33.3312 18.6385C33.6188 18.5958 33.912 18.5742 34.2116 18.5742C36.6581 18.5742 38.7625 20.0351 39.7027 22.1324V22.1335C39.7892 22.3258 39.8655 22.5242 39.9313 22.726C40.1221 23.3133 40.2249 23.9379 40.2249 24.5875V24.5879Z" fill="#373839"/>
<path d="M39.931 31.3685V31.3746C38.2842 33.7012 35.9991 35.5415 33.3305 36.643C31.5458 37.3822 29.5891 37.7888 27.5368 37.7888C27.3936 37.7888 27.2496 37.7869 27.1075 37.7831C26.9809 37.7797 26.8566 37.7737 26.7304 37.7687V37.7891C24.3248 37.7891 22.0703 37.1464 20.1299 36.0229C19.0503 35.3979 18.0678 34.6251 17.21 33.7322L17.1994 33.722C16.4863 32.9798 15.8598 32.1542 15.338 31.2605C14.1998 29.3227 13.5426 27.0682 13.5309 24.6604L13.5298 24.5878V8.77566C13.7214 8.75752 13.9179 8.74731 14.1163 8.74731C15.7763 8.74731 17.2795 9.4207 18.3682 10.5086C18.6569 10.7977 18.9165 11.1159 19.1429 11.4594C19.5022 12.005 19.7766 12.6134 19.9421 13.2649C20.0649 13.7426 20.1299 14.2448 20.1299 14.7606V21.728C20.1299 22.7384 20.2516 23.7209 20.4847 24.66C21.1317 27.3014 22.6383 29.6057 24.6883 31.2601C25.3209 31.7721 26.0045 32.2207 26.7304 32.5982C28.4203 33.4783 30.3399 33.9756 32.3771 33.9756C32.6987 33.9756 33.0153 33.9635 33.3305 33.9389C34.5322 33.8463 35.6851 33.5807 36.7643 33.1661C37.9142 32.7259 38.9795 32.1171 39.931 31.3689V31.3685Z" fill="#373839"/>
<path d="M41.5972 45.2819H45.9201V40.9585H41.5972V45.2819Z" fill="white"/>
<path d="M50.0041 45.2451C49.461 47.2388 47.88 48.8093 45.8813 49.3368V45.2451H50.0041Z" fill="white"/>
<path d="M32.9502 45.2819H37.2735V40.9585H32.9502V45.2819Z" fill="white"/>
<path d="M28.6274 49.6047H32.9504V45.2817H28.6274V49.6047Z" fill="white"/>
<path d="M37.2739 49.6047H41.5973V45.2817H37.2739V49.6047Z" fill="white"/>
<path d="M15.7389 45.282H11.4155V49.605H15.7389V45.282Z" fill="white"/>
<path d="M11.4543 40.9971H7.13135V45.3201H11.4543V40.9971Z" fill="white"/>
<path d="M24.3859 45.2817H20.0625V49.6047H24.3859V45.2817Z" fill="white"/>
<path d="M28.7086 40.9585H24.3853V45.2819H28.7086V40.9585Z" fill="white"/>
<path d="M20.0622 40.9585H15.7393V45.2819H20.0622V40.9585Z" fill="white"/>
</svg>
