<svg width="59" height="59" viewBox="0 0 59 59" fill="none" xmlns="http://www.w3.org/2000/svg">
<g id="Group">
<path id="Vector" d="M9.17061 9.1706L9.1706 9.17061C3.7409 14.6005 0.75 21.8211 0.75 29.5C0.75 37.1789 3.7409 44.3995 9.1706 49.8293C14.6005 55.2591 21.8211 58.25 29.5 58.25C35.0658 58.25 40.4668 56.6564 45.1186 53.6412C46.2664 52.8973 46.5936 51.3638 45.8497 50.216C45.1058 49.0681 43.5721 48.7409 42.4245 49.4848C38.5772 51.9787 34.1082 53.2969 29.5 53.2969C16.3786 53.2969 5.70312 42.6214 5.70312 29.5C5.70312 16.3786 16.3786 5.70312 29.5 5.70312C42.6214 5.70312 53.2969 16.3786 53.2969 29.5C53.2969 34.0708 51.9984 38.5092 49.5421 42.3358L49.7525 42.4708L49.5421 42.3358C48.8033 43.4868 49.1374 45.0189 50.2884 45.7578C51.4393 46.4965 52.9715 46.1626 53.7104 45.0115C56.6802 40.3847 58.25 35.0208 58.25 29.5C58.25 21.8211 55.2591 14.6005 49.8294 9.17061L49.6526 9.34738L49.8294 9.1706C44.3995 3.7409 37.1789 0.75 29.5 0.75C21.8211 0.75 14.6005 3.7409 9.17061 9.1706Z" fill="#F8BF00" stroke="#F8BF00" stroke-width="0.5"/>
<path id="Vector_2" d="M16.4938 37.552L16.4938 37.552C15.9049 36.3175 16.4281 34.8394 17.6625 34.2504L16.4938 37.552ZM16.4938 37.552C17.6485 39.972 19.453 42.0199 21.7117 43.4739C24.0343 44.9692 26.7277 45.7594 29.5 45.7594C32.2724 45.7594 34.9659 44.9692 37.2884 43.4739C39.547 42.0198 41.3514 39.9721 42.5063 37.552C43.0953 36.3175 42.5721 34.8394 41.3376 34.2503L41.3376 34.2503M16.4938 37.552L41.3376 34.2503M41.3376 34.2503C40.103 33.6614 38.625 34.1845 38.0359 35.419M41.3376 34.2503L38.0359 35.419M38.0359 35.419C36.4746 38.6912 33.1232 40.8064 29.5 40.8064M38.0359 35.419L29.5 40.8064M29.5 40.8064C25.8769 40.8064 22.5255 38.6912 20.9642 35.419M29.5 40.8064L20.9642 35.419M20.9642 35.419C20.3751 34.1845 18.8969 33.661 17.6625 34.2503L20.9642 35.419Z" fill="#F8BF00" stroke="#F8BF00" stroke-width="0.5"/>
<path id="Vector_3" d="M24.0276 27.7401V22.1216C24.0276 20.7538 22.9188 19.645 21.551 19.645C20.1832 19.645 19.0745 20.7538 19.0745 22.1216V27.7401C19.0745 29.1079 20.1832 30.2167 21.551 30.2167C22.9188 30.2167 24.0276 29.1079 24.0276 27.7401Z" fill="#F8BF00" stroke="#F8BF00" stroke-width="0.5"/>
<path id="Vector_4" d="M39.9255 27.7401V22.1216C39.9255 20.7538 38.8168 19.645 37.449 19.645C36.0812 19.645 34.9724 20.7538 34.9724 22.1216V27.7401C34.9724 29.1079 36.0812 30.2167 37.449 30.2167C38.8168 30.2167 39.9255 29.1079 39.9255 27.7401Z" fill="#F8BF00" stroke="#F8BF00" stroke-width="0.5"/>
</g>
</svg>
